<svg xmlns="http://www.w3.org/2000/svg" width="60" height="60" viewBox="0 0 60 60" fill="none"><metadata><rdf:RDF xmlns:rdf="http://www.w3.org/1999/02/22-rdf-syntax-ns#" xmlns:dc="http://purl.org/dc/elements/1.1/"><rdf:Description><dc:creator>RealFaviconGenerator</dc:creator><dc:source>https://realfavicongenerator.net</dc:source></rdf:Description></rdf:RDF></metadata><path d="M60 30C60 46.5685 46.5685 60 30 60C13.4315 60 0 46.5685 0 30C0 13.4315 13.4315 0 30 0C46.5685 0 60 13.4315 60 30Z" fill="#FFD6AE"></path><path d="M47.1429 30C47.1429 39.4677 39.4677 47.1429 30 47.1429C20.5323 47.1429 12.8571 39.4677 12.8571 30C12.8571 20.5323 20.5323 12.8571 30 12.8571C39.4677 12.8571 47.1429 20.5323 47.1429 30Z" fill="#F64C3E"></path><path d="M36.4286 30C36.4286 33.5504 33.5504 36.4286 30 36.4286C26.4496 36.4286 23.5714 33.5504 23.5714 30C23.5714 26.4496 26.4496 23.5714 30 23.5714C33.5504 23.5714 36.4286 26.4496 36.4286 30Z" fill="#1E1E1E"></path></svg>