<svg width="218" height="30" viewBox="0 0 218 30" fill="none" xmlns="http://www.w3.org/2000/svg">
<path d="M30 15C30 23.2843 23.2843 30 15 30C6.71573 30 0 23.2843 0 15C0 6.71573 6.71573 0 15 0C23.2843 0 30 6.71573 30 15Z" fill="#F3DAD5"/>
<path d="M23.5714 15C23.5714 19.7339 19.7339 23.5714 15 23.5714C10.2661 23.5714 6.42857 19.7339 6.42857 15C6.42857 10.2661 10.2661 6.42857 15 6.42857C19.7339 6.42857 23.5714 10.2661 23.5714 15Z" fill="#C84B31"/>
<path d="M18.2143 15C18.2143 16.7752 16.7752 18.2143 15 18.2143C13.2248 18.2143 11.7857 16.7752 11.7857 15C11.7857 13.2248 13.2248 11.7857 15 11.7857C16.7752 11.7857 18.2143 13.2248 18.2143 15Z" fill="#1E1E1E"/>
<path d="M47.2211 5.22161C49.084 5.22161 50.6518 5.84949 51.9245 7.10526C53.1972 8.36103 53.8335 9.90305 53.8335 11.7313C53.8335 13.5596 53.1972 15.1016 51.9245 16.3573C50.6518 17.6131 49.084 18.241 47.2211 18.241H43.818V24.6122H40V5.22161H47.2211ZM47.2211 14.6676C48.0327 14.6676 48.7059 14.3906 49.2408 13.8366C49.7757 13.2641 50.0431 12.5623 50.0431 11.7313C50.0431 10.8818 49.7757 10.1801 49.2408 9.62604C48.7059 9.07202 48.0327 8.79501 47.2211 8.79501H43.818V14.6676H47.2211Z" fill="#502D26"/>
<path d="M58.3184 13.144C58.6504 12.2576 59.1945 11.5928 59.9507 11.1496C60.7254 10.7064 61.5831 10.4848 62.5238 10.4848V14.4737C61.4355 14.3444 60.4579 14.566 59.591 15.1385C58.7426 15.711 58.3184 16.662 58.3184 17.9917V24.6122H54.7493V10.7618H58.3184V13.144Z" fill="#502D26"/>
<path d="M74.7772 22.8947C73.357 24.2982 71.6232 25 69.5758 25C67.5285 25 65.7947 24.2982 64.3744 22.8947C62.9726 21.4728 62.2717 19.7368 62.2717 17.687C62.2717 15.6371 62.9726 13.9104 64.3744 12.5069C65.7947 11.0849 67.5285 10.374 69.5758 10.374C71.6232 10.374 73.357 11.0849 74.7772 12.5069C76.1975 13.9104 76.9076 15.6371 76.9076 17.687C76.9076 19.7368 76.1975 21.4728 74.7772 22.8947ZM66.8921 20.4294C67.6115 21.1496 68.506 21.5097 69.5758 21.5097C70.6456 21.5097 71.5402 21.1496 72.2595 20.4294C72.9789 19.7091 73.3385 18.795 73.3385 17.687C73.3385 16.5789 72.9789 15.6648 72.2595 14.9446C71.5402 14.2244 70.6456 13.8643 69.5758 13.8643C68.506 13.8643 67.6115 14.2244 66.8921 14.9446C66.1912 15.6648 65.8408 16.5789 65.8408 17.687C65.8408 18.795 66.1912 19.7091 66.8921 20.4294Z" fill="#502D26"/>
<path d="M88.7975 5.22161H92.3665V24.6122H88.7975V22.9778C87.7461 24.3259 86.2521 25 84.3154 25C82.4525 25 80.857 24.2982 79.529 22.8947C78.2194 21.4728 77.5647 19.7368 77.5647 17.687C77.5647 15.6371 78.2194 13.9104 79.529 12.5069C80.857 11.0849 82.4525 10.374 84.3154 10.374C86.2521 10.374 87.7461 11.048 88.7975 12.3961V5.22161ZM82.2127 20.5125C82.9505 21.2327 83.8727 21.5928 84.9794 21.5928C86.0861 21.5928 86.9991 21.2327 87.7185 20.5125C88.4378 19.7738 88.7975 18.8319 88.7975 17.687C88.7975 16.542 88.4378 15.6094 87.7185 14.8892C86.9991 14.1505 86.0861 13.7812 84.9794 13.7812C83.8727 13.7812 82.9505 14.1505 82.2127 14.8892C81.4934 15.6094 81.1337 16.542 81.1337 17.687C81.1337 18.8319 81.4934 19.7738 82.2127 20.5125Z" fill="#502D26"/>
<path d="M103.654 10.7618H107.223V24.6122H103.654V23.0609C102.787 24.3536 101.413 25 99.5316 25C98.0192 25 96.7649 24.4922 95.7689 23.4765C94.7913 22.4608 94.3026 21.0572 94.3026 19.2659V10.7618H97.8716V18.8227C97.8716 19.7461 98.1206 20.4571 98.6186 20.9557C99.1166 21.4358 99.7806 21.6759 100.611 21.6759C101.533 21.6759 102.271 21.3897 102.824 20.8172C103.377 20.2447 103.654 19.386 103.654 18.241V10.7618Z" fill="#502D26"/>
<path d="M115.97 25C113.886 25 112.143 24.2982 110.741 22.8947C109.358 21.4912 108.666 19.7553 108.666 17.687C108.666 15.6187 109.358 13.8827 110.741 12.4792C112.143 11.0757 113.886 10.374 115.97 10.374C117.316 10.374 118.543 10.6971 119.65 11.3435C120.756 11.9898 121.596 12.8578 122.167 13.9474L119.096 15.7479C118.82 15.1754 118.395 14.723 117.824 14.3906C117.27 14.0582 116.643 13.892 115.942 13.892C114.872 13.892 113.987 14.2521 113.286 14.9723C112.585 15.6741 112.235 16.5789 112.235 17.687C112.235 18.7765 112.585 19.6814 113.286 20.4017C113.987 21.1034 114.872 21.4543 115.942 21.4543C116.662 21.4543 117.298 21.2973 117.851 20.9834C118.423 20.651 118.847 20.1985 119.124 19.626L122.223 21.3989C121.614 22.4885 120.756 23.3657 119.65 24.0305C118.543 24.6768 117.316 25 115.97 25Z" fill="#502D26"/>
<path d="M130.916 14.1967H127.79V19.9584C127.79 20.4386 127.91 20.7895 128.15 21.0111C128.389 21.2327 128.74 21.362 129.201 21.3989C129.662 21.4174 130.234 21.4081 130.916 21.3712V24.6122C128.463 24.8892 126.729 24.6584 125.715 23.9197C124.719 23.181 124.221 21.8606 124.221 19.9584V14.1967H121.814V10.7618H124.221V7.96399L127.79 6.88366V10.7618H130.916V14.1967Z" fill="#502D26"/>
<path d="M145.02 5.22161H147.593V24.6122H145.518L135.558 10.1247V24.6122H132.985V5.22161H135.06L145.02 19.6814V5.22161Z" fill="#C84B31"/>
<path d="M161.834 10.7618H164.241V24.6122H161.834V22.2299C160.635 24.0582 158.892 24.9723 156.605 24.9723C154.668 24.9723 153.018 24.2705 151.653 22.867C150.288 21.4451 149.605 19.7184 149.605 17.687C149.605 15.6556 150.288 13.9381 151.653 12.5346C153.018 11.1127 154.668 10.4017 156.605 10.4017C158.892 10.4017 160.635 11.3158 161.834 13.144V10.7618ZM156.91 22.6454C158.311 22.6454 159.483 22.1745 160.423 21.2327C161.364 20.2724 161.834 19.0905 161.834 17.687C161.834 16.2835 161.364 15.1108 160.423 14.169C159.483 13.2087 158.311 12.7285 156.91 12.7285C155.526 12.7285 154.364 13.2087 153.423 14.169C152.483 15.1108 152.012 16.2835 152.012 17.687C152.012 19.0905 152.483 20.2724 153.423 21.2327C154.364 22.1745 155.526 22.6454 156.91 22.6454Z" fill="#C84B31"/>
<path d="M174.307 13.0886H170.627V20.5956C170.627 21.2789 170.756 21.7682 171.015 22.0637C171.291 22.3407 171.706 22.4885 172.26 22.5069C172.813 22.5069 173.495 22.4885 174.307 22.4515V24.6122C172.204 24.8892 170.664 24.723 169.686 24.1136C168.709 23.4857 168.22 22.313 168.22 20.5956V13.0886H165.481V10.7618H168.22V7.60388L170.627 6.88366V10.7618H174.307V13.0886Z" fill="#C84B31"/>
<path d="M177.267 8.241C176.806 8.241 176.419 8.08403 176.105 7.77008C175.792 7.45614 175.635 7.07756 175.635 6.63435C175.635 6.19113 175.792 5.81256 176.105 5.49861C176.419 5.1662 176.806 5 177.267 5C177.71 5 178.088 5.1662 178.402 5.49861C178.715 5.81256 178.872 6.19113 178.872 6.63435C178.872 7.07756 178.715 7.45614 178.402 7.77008C178.088 8.08403 177.71 8.241 177.267 8.241ZM176.05 24.6122V10.7618H178.457V24.6122H176.05Z" fill="#C84B31"/>
<path d="M190.706 10.7618H193.307L187.773 24.6122H184.951L179.418 10.7618H182.018L186.362 22.036L190.706 10.7618Z" fill="#C84B31"/>
<path d="M195.383 18.795C195.623 20.0323 196.185 20.9926 197.071 21.6759C197.974 22.3592 199.081 22.7008 200.391 22.7008C202.217 22.7008 203.545 22.0268 204.375 20.6787L206.422 21.8421C205.076 23.9289 203.047 24.9723 200.335 24.9723C198.14 24.9723 196.351 24.289 194.968 22.9224C193.603 21.5374 192.921 19.7922 192.921 17.687C192.921 15.6002 193.594 13.8643 194.94 12.4792C196.287 11.0942 198.03 10.4017 200.169 10.4017C202.198 10.4017 203.849 11.1219 205.122 12.5623C206.413 13.9843 207.058 15.7018 207.058 17.7147C207.058 18.0656 207.031 18.4257 206.975 18.795H195.383ZM200.169 12.6731C198.878 12.6731 197.808 13.0425 196.96 13.7812C196.111 14.5014 195.586 15.4709 195.383 16.6898H204.624C204.421 15.3786 203.904 14.3813 203.074 13.6981C202.244 13.0148 201.276 12.6731 200.169 12.6731Z" fill="#C84B31"/>
<path d="M210.253 14.5014C210.253 15.0369 210.521 15.4709 211.056 15.8033C211.59 16.1173 212.236 16.3758 212.992 16.5789C213.749 16.7636 214.505 16.9852 215.261 17.2438C216.017 17.4838 216.663 17.9086 217.198 18.518C217.733 19.109 218 19.8753 218 20.8172C218 22.0729 217.511 23.0794 216.534 23.8366C215.575 24.5937 214.339 24.9723 212.826 24.9723C211.48 24.9723 210.327 24.6768 209.368 24.0859C208.409 23.4949 207.726 22.7101 207.321 21.7313L209.396 20.5402C209.617 21.205 210.032 21.7313 210.641 22.1191C211.249 22.5069 211.978 22.7008 212.826 22.7008C213.619 22.7008 214.274 22.5531 214.791 22.2576C215.307 21.9437 215.565 21.4635 215.565 20.8172C215.565 20.2816 215.298 19.8569 214.763 19.5429C214.228 19.2105 213.583 18.952 212.826 18.7673C212.07 18.5642 211.314 18.3333 210.558 18.0748C209.801 17.8163 209.156 17.3915 208.621 16.8006C208.086 16.2096 207.819 15.4524 207.819 14.5291C207.819 13.3287 208.28 12.3407 209.202 11.5651C210.143 10.7895 211.314 10.4017 212.716 10.4017C213.841 10.4017 214.837 10.6602 215.704 11.1773C216.589 11.6759 217.253 12.3777 217.696 13.2825L215.676 14.4183C215.178 13.2364 214.191 12.6454 212.716 12.6454C212.033 12.6454 211.452 12.8116 210.973 13.144C210.493 13.458 210.253 13.9104 210.253 14.5014Z" fill="#C84B31"/>
</svg>
